# xmcd
#
# Track frame offsets:
#	150
#	13421
#	24395
#	34612
#	46555
#	66681
#	81670
#	93254
#	105334
#	114005
#	127692
#	147621
#
# Disc length: 2113 seconds
#
# Revision: 0
# Processed by: cddbd v1.5.2PL0 Copyright (c) Steve Scherf et al.
# Submitted via: dBpowerAMP V4.0
#
DISCID=96083f0c
DTITLE=Crossliners - Bring Back The Sixties
DYEAR=2008
DGENRE=Oldies
TTITLE0=On The Beach 
TTITLE1=Rock'n Roll Party Down Town 
TTITLE2=Shazam 
TTITLE3=You Drive Me Crazy 
TTITLE4=Har Du Lyst 
TTITLE5=I Could Easily Fall 
TTITLE6=Tag Min Hånd Og Kom Med Mig 
TTITLE7=Needles And Pins
TTITLE8=Listen To My Heart
TTITLE9=Please Don't Tease
TTITLE10=Sweetheart
TTITLE11=Chatanooga-Choo-Choo
EXTD=Droosliners\nBring Back The Sixties\n2008
EXTT0=
EXTT1=
EXTT2=
EXTT3=
EXTT4=
EXTT5=
EXTT6=
EXTT7=
EXTT8=
EXTT9=
EXTT10=
EXTT11=
PLAYORDER=
